<svg width="43" height="64" viewBox="0 0 43 64" fill="none" xmlns="http://www.w3.org/2000/svg">
<g clip-path="url(#clip0_100800_2)">
<path d="M10.6683 64.0001C16.5563 64.0001 21.335 59.2214 21.335 53.3334V42.6667H10.6683C4.78033 42.6667 0.00166321 47.4454 0.00166321 53.3334C0.00166321 59.2214 4.78033 64.0001 10.6683 64.0001Z" fill="#0ACF83"/>
<path d="M0.00166321 31.9999C0.00166321 26.1119 4.78033 21.3333 10.6683 21.3333H21.335V42.6666H10.6683C4.78033 42.6666 0.00166321 37.8879 0.00166321 31.9999Z" fill="#A259FF"/>
<path d="M0.00166321 10.6667C0.00166321 4.77867 4.78033 0 10.6683 0H21.335V21.3333H10.6683C4.78033 21.3333 0.00166321 16.5547 0.00166321 10.6667Z" fill="#F24E1E"/>
<path d="M21.335 0H32.0017C37.8897 0 42.6683 4.77867 42.6683 10.6667C42.6683 16.5547 37.8897 21.3333 32.0017 21.3333H21.335V0Z" fill="#FF7262"/>
<path d="M42.6683 31.9999C42.6683 37.8879 37.8897 42.6666 32.0017 42.6666C26.1137 42.6666 21.335 37.8879 21.335 31.9999C21.335 26.1119 26.1137 21.3333 32.0017 21.3333C37.8897 21.3333 42.6683 26.1119 42.6683 31.9999Z" fill="#1ABCFE"/>
</g>
<defs>
<clipPath id="clip0_100800_2">
<rect width="42.67" height="64" fill="white"/>
</clipPath>
</defs>
</svg>
