<svg width="49" height="84" viewBox="0 0 49 84" fill="none" xmlns="http://www.w3.org/2000/svg">
<path d="M46.9182 2.22445C48.0899 3.3965 48.7481 4.98592 48.7481 6.6432C48.7481 8.30047 48.0899 9.8899 46.9182 11.0619L15.9807 41.9994L46.9182 72.937C48.0567 74.1157 48.6866 75.6945 48.6724 77.3332C48.6582 78.9719 48.0009 80.5395 46.8421 81.6983C45.6833 82.8571 44.1157 83.5144 42.477 83.5287C40.8382 83.5429 39.2595 82.9129 38.0807 81.7745L2.72445 46.4182C1.55275 45.2462 0.894531 43.6567 0.894531 41.9994C0.894531 40.3422 1.55275 38.7527 2.72445 37.5807L38.0807 2.22445C39.2527 1.05275 40.8422 0.394531 42.4994 0.394531C44.1567 0.394531 45.7461 1.05275 46.9182 2.22445Z" fill="#ED1E2B"/>
</svg>
