<svg width="49" height="84" viewBox="0 0 49 84" fill="none" xmlns="http://www.w3.org/2000/svg">
<path d="M2.0818 2.22445C0.910111 3.3965 0.251889 4.98592 0.251889 6.6432C0.251889 8.30047 0.910111 9.8899 2.0818 11.0619L33.0193 41.9994L2.0818 72.937C0.943317 74.1157 0.313352 75.6945 0.327592 77.3332C0.341833 78.9719 0.999137 80.5395 2.15794 81.6983C3.31674 82.8571 4.88432 83.5144 6.52305 83.5287C8.16178 83.5429 9.74054 82.9129 10.9193 81.7745L46.2756 46.4182C47.4472 45.2462 48.1055 43.6567 48.1055 41.9994C48.1055 40.3422 47.4472 38.7527 46.2756 37.5807L10.9193 2.22445C9.74725 1.05275 8.15783 0.394531 6.50055 0.394531C4.84328 0.394531 3.25385 1.05275 2.0818 2.22445Z" fill="#ED1E2B"/>
</svg>
